<mxfile host="Electron" agent="Mozilla/5.0 (Windows NT 10.0; Win64; x64) AppleWebKit/537.36 (KHTML, like Gecko) draw.io/25.0.2 Chrome/128.0.6613.186 Electron/32.2.5 Safari/537.36" version="25.0.2">
  <diagram name="Page-1" id="BSHNCbjoeeCdyLKeYHf0">
    <mxGraphModel dx="869" dy="1681" grid="1" gridSize="10" guides="1" tooltips="1" connect="1" arrows="1" fold="1" page="1" pageScale="1" pageWidth="827" pageHeight="1169" math="0" shadow="0">
      <root>
        <mxCell id="0" />
        <mxCell id="1" parent="0" />
        <mxCell id="T4675CntPIbb6OxWo32h-7" style="edgeStyle=orthogonalEdgeStyle;rounded=0;orthogonalLoop=1;jettySize=auto;html=1;entryX=1;entryY=0.75;entryDx=0;entryDy=0;fillColor=#1ba1e2;strokeColor=#006EAF;" edge="1" parent="1" source="s_r3ZVMq5Yv6c_A7ZO6Z-6" target="T4675CntPIbb6OxWo32h-1">
          <mxGeometry relative="1" as="geometry">
            <Array as="points">
              <mxPoint x="579" y="410" />
              <mxPoint x="579" y="765" />
            </Array>
          </mxGeometry>
        </mxCell>
        <mxCell id="T4675CntPIbb6OxWo32h-2" style="edgeStyle=orthogonalEdgeStyle;rounded=0;orthogonalLoop=1;jettySize=auto;html=1;entryX=1.008;entryY=0.662;entryDx=0;entryDy=0;entryPerimeter=0;fillColor=#1ba1e2;strokeColor=#006EAF;" edge="1" parent="1" source="T4675CntPIbb6OxWo32h-1" target="s_r3ZVMq5Yv6c_A7ZO6Z-19">
          <mxGeometry relative="1" as="geometry">
            <Array as="points">
              <mxPoint x="409" y="750" />
              <mxPoint x="409" y="600" />
            </Array>
          </mxGeometry>
        </mxCell>
        <mxCell id="s_r3ZVMq5Yv6c_A7ZO6Z-21" style="edgeStyle=orthogonalEdgeStyle;rounded=0;orthogonalLoop=1;jettySize=auto;html=1;entryX=0.016;entryY=0.665;entryDx=0;entryDy=0;entryPerimeter=0;" parent="1" source="s_r3ZVMq5Yv6c_A7ZO6Z-19" target="s_r3ZVMq5Yv6c_A7ZO6Z-6" edge="1">
          <mxGeometry relative="1" as="geometry">
            <Array as="points">
              <mxPoint x="369" y="590" />
              <mxPoint x="369" y="410" />
            </Array>
            <mxPoint x="399" y="430" as="targetPoint" />
          </mxGeometry>
        </mxCell>
        <mxCell id="s_r3ZVMq5Yv6c_A7ZO6Z-3" value="" style="edgeStyle=orthogonalEdgeStyle;rounded=0;orthogonalLoop=1;jettySize=auto;html=1;" parent="1" source="s_r3ZVMq5Yv6c_A7ZO6Z-1" target="s_r3ZVMq5Yv6c_A7ZO6Z-2" edge="1">
          <mxGeometry relative="1" as="geometry" />
        </mxCell>
        <mxCell id="s_r3ZVMq5Yv6c_A7ZO6Z-13" style="edgeStyle=orthogonalEdgeStyle;rounded=0;orthogonalLoop=1;jettySize=auto;html=1;entryX=0;entryY=0.5;entryDx=0;entryDy=0;" parent="1" source="s_r3ZVMq5Yv6c_A7ZO6Z-1" target="s_r3ZVMq5Yv6c_A7ZO6Z-12" edge="1">
          <mxGeometry relative="1" as="geometry">
            <Array as="points">
              <mxPoint x="210" y="70" />
              <mxPoint x="210" y="430" />
            </Array>
          </mxGeometry>
        </mxCell>
        <mxCell id="s_r3ZVMq5Yv6c_A7ZO6Z-16" style="edgeStyle=orthogonalEdgeStyle;rounded=0;orthogonalLoop=1;jettySize=auto;html=1;entryX=0;entryY=0.5;entryDx=0;entryDy=0;" parent="1" source="s_r3ZVMq5Yv6c_A7ZO6Z-1" target="s_r3ZVMq5Yv6c_A7ZO6Z-15" edge="1">
          <mxGeometry relative="1" as="geometry">
            <Array as="points">
              <mxPoint x="210" y="70" />
              <mxPoint x="210" y="510" />
            </Array>
          </mxGeometry>
        </mxCell>
        <mxCell id="s_r3ZVMq5Yv6c_A7ZO6Z-28" style="edgeStyle=orthogonalEdgeStyle;rounded=0;orthogonalLoop=1;jettySize=auto;html=1;entryX=0;entryY=0.5;entryDx=0;entryDy=0;" parent="1" source="s_r3ZVMq5Yv6c_A7ZO6Z-1" target="s_r3ZVMq5Yv6c_A7ZO6Z-22" edge="1">
          <mxGeometry relative="1" as="geometry">
            <Array as="points">
              <mxPoint x="210" y="70" />
              <mxPoint x="210" y="670" />
            </Array>
          </mxGeometry>
        </mxCell>
        <mxCell id="s_r3ZVMq5Yv6c_A7ZO6Z-29" style="edgeStyle=orthogonalEdgeStyle;rounded=0;orthogonalLoop=1;jettySize=auto;html=1;entryX=0;entryY=0.5;entryDx=0;entryDy=0;" parent="1" source="s_r3ZVMq5Yv6c_A7ZO6Z-1" target="s_r3ZVMq5Yv6c_A7ZO6Z-19" edge="1">
          <mxGeometry relative="1" as="geometry">
            <Array as="points">
              <mxPoint x="210" y="70" />
              <mxPoint x="210" y="590" />
            </Array>
          </mxGeometry>
        </mxCell>
        <mxCell id="T4675CntPIbb6OxWo32h-3" style="edgeStyle=orthogonalEdgeStyle;rounded=0;orthogonalLoop=1;jettySize=auto;html=1;entryX=0;entryY=0.5;entryDx=0;entryDy=0;" edge="1" parent="1" source="s_r3ZVMq5Yv6c_A7ZO6Z-1" target="T4675CntPIbb6OxWo32h-1">
          <mxGeometry relative="1" as="geometry">
            <Array as="points">
              <mxPoint x="210" y="70" />
              <mxPoint x="210" y="750" />
            </Array>
          </mxGeometry>
        </mxCell>
        <mxCell id="T4675CntPIbb6OxWo32h-5" style="edgeStyle=orthogonalEdgeStyle;rounded=0;orthogonalLoop=1;jettySize=auto;html=1;entryX=0;entryY=0.5;entryDx=0;entryDy=0;" edge="1" parent="1" source="s_r3ZVMq5Yv6c_A7ZO6Z-1" target="T4675CntPIbb6OxWo32h-4">
          <mxGeometry relative="1" as="geometry">
            <Array as="points">
              <mxPoint x="210" y="70" />
              <mxPoint x="210" y="830" />
            </Array>
          </mxGeometry>
        </mxCell>
        <mxCell id="T4675CntPIbb6OxWo32h-9" style="edgeStyle=orthogonalEdgeStyle;rounded=0;orthogonalLoop=1;jettySize=auto;html=1;entryX=0;entryY=0.5;entryDx=0;entryDy=0;" edge="1" parent="1" source="s_r3ZVMq5Yv6c_A7ZO6Z-1" target="T4675CntPIbb6OxWo32h-8">
          <mxGeometry relative="1" as="geometry">
            <Array as="points">
              <mxPoint x="210" y="70" />
              <mxPoint x="210" y="910" />
            </Array>
          </mxGeometry>
        </mxCell>
        <mxCell id="T4675CntPIbb6OxWo32h-11" style="edgeStyle=orthogonalEdgeStyle;rounded=0;orthogonalLoop=1;jettySize=auto;html=1;" edge="1" parent="1" source="s_r3ZVMq5Yv6c_A7ZO6Z-1" target="T4675CntPIbb6OxWo32h-10">
          <mxGeometry relative="1" as="geometry">
            <Array as="points">
              <mxPoint x="100" y="50" />
              <mxPoint x="100" y="50" />
            </Array>
          </mxGeometry>
        </mxCell>
        <mxCell id="T4675CntPIbb6OxWo32h-23" style="edgeStyle=orthogonalEdgeStyle;rounded=0;orthogonalLoop=1;jettySize=auto;html=1;" edge="1" parent="1" source="s_r3ZVMq5Yv6c_A7ZO6Z-1" target="T4675CntPIbb6OxWo32h-21">
          <mxGeometry relative="1" as="geometry" />
        </mxCell>
        <mxCell id="s_r3ZVMq5Yv6c_A7ZO6Z-1" value="entity" style="rounded=0;whiteSpace=wrap;html=1;" parent="1" vertex="1">
          <mxGeometry x="50" y="40" width="120" height="60" as="geometry" />
        </mxCell>
        <mxCell id="s_r3ZVMq5Yv6c_A7ZO6Z-4" style="edgeStyle=orthogonalEdgeStyle;rounded=0;orthogonalLoop=1;jettySize=auto;html=1;" parent="1" source="s_r3ZVMq5Yv6c_A7ZO6Z-2" target="s_r3ZVMq5Yv6c_A7ZO6Z-5" edge="1">
          <mxGeometry relative="1" as="geometry">
            <mxPoint x="389" y="70" as="targetPoint" />
          </mxGeometry>
        </mxCell>
        <mxCell id="s_r3ZVMq5Yv6c_A7ZO6Z-9" style="edgeStyle=orthogonalEdgeStyle;rounded=0;orthogonalLoop=1;jettySize=auto;html=1;entryX=0;entryY=0.5;entryDx=0;entryDy=0;" parent="1" source="s_r3ZVMq5Yv6c_A7ZO6Z-2" target="s_r3ZVMq5Yv6c_A7ZO6Z-7" edge="1">
          <mxGeometry relative="1" as="geometry" />
        </mxCell>
        <mxCell id="s_r3ZVMq5Yv6c_A7ZO6Z-10" style="edgeStyle=orthogonalEdgeStyle;rounded=0;orthogonalLoop=1;jettySize=auto;html=1;entryX=0;entryY=0.333;entryDx=0;entryDy=0;entryPerimeter=0;" parent="1" source="s_r3ZVMq5Yv6c_A7ZO6Z-2" target="s_r3ZVMq5Yv6c_A7ZO6Z-6" edge="1">
          <mxGeometry relative="1" as="geometry" />
        </mxCell>
        <mxCell id="s_r3ZVMq5Yv6c_A7ZO6Z-11" style="edgeStyle=orthogonalEdgeStyle;rounded=0;orthogonalLoop=1;jettySize=auto;html=1;entryX=0;entryY=0.5;entryDx=0;entryDy=0;" parent="1" source="s_r3ZVMq5Yv6c_A7ZO6Z-2" target="s_r3ZVMq5Yv6c_A7ZO6Z-8" edge="1">
          <mxGeometry relative="1" as="geometry">
            <mxPoint x="339" y="300" as="targetPoint" />
            <Array as="points">
              <mxPoint x="389" y="70" />
              <mxPoint x="389" y="230" />
            </Array>
          </mxGeometry>
        </mxCell>
        <mxCell id="T4675CntPIbb6OxWo32h-24" style="edgeStyle=orthogonalEdgeStyle;rounded=0;orthogonalLoop=1;jettySize=auto;html=1;entryX=0;entryY=0.5;entryDx=0;entryDy=0;" edge="1" parent="1" source="s_r3ZVMq5Yv6c_A7ZO6Z-2" target="T4675CntPIbb6OxWo32h-12">
          <mxGeometry relative="1" as="geometry" />
        </mxCell>
        <mxCell id="s_r3ZVMq5Yv6c_A7ZO6Z-2" value="init" style="whiteSpace=wrap;html=1;rounded=1;glass=0;" parent="1" vertex="1">
          <mxGeometry x="229" y="40" width="120" height="60" as="geometry" />
        </mxCell>
        <mxCell id="s_r3ZVMq5Yv6c_A7ZO6Z-5" value="setSprite" style="rounded=1;whiteSpace=wrap;html=1;" parent="1" vertex="1">
          <mxGeometry x="429" y="40" width="120" height="60" as="geometry" />
        </mxCell>
        <mxCell id="s_r3ZVMq5Yv6c_A7ZO6Z-27" style="edgeStyle=orthogonalEdgeStyle;rounded=0;orthogonalLoop=1;jettySize=auto;html=1;entryX=0.5;entryY=0;entryDx=0;entryDy=0;" parent="1" source="s_r3ZVMq5Yv6c_A7ZO6Z-6" target="s_r3ZVMq5Yv6c_A7ZO6Z-25" edge="1">
          <mxGeometry relative="1" as="geometry" />
        </mxCell>
        <mxCell id="T4675CntPIbb6OxWo32h-6" style="edgeStyle=orthogonalEdgeStyle;rounded=0;orthogonalLoop=1;jettySize=auto;html=1;entryX=1;entryY=0.5;entryDx=0;entryDy=0;" edge="1" parent="1" source="s_r3ZVMq5Yv6c_A7ZO6Z-6" target="T4675CntPIbb6OxWo32h-4">
          <mxGeometry relative="1" as="geometry">
            <Array as="points">
              <mxPoint x="599" y="390" />
              <mxPoint x="599" y="830" />
            </Array>
          </mxGeometry>
        </mxCell>
        <mxCell id="s_r3ZVMq5Yv6c_A7ZO6Z-6" value="setPos" style="rounded=1;whiteSpace=wrap;html=1;" parent="1" vertex="1">
          <mxGeometry x="429" y="370" width="120" height="60" as="geometry" />
        </mxCell>
        <mxCell id="s_r3ZVMq5Yv6c_A7ZO6Z-7" value="rotateSprite" style="rounded=1;whiteSpace=wrap;html=1;" parent="1" vertex="1">
          <mxGeometry x="429" y="120" width="120" height="60" as="geometry" />
        </mxCell>
        <mxCell id="s_r3ZVMq5Yv6c_A7ZO6Z-8" value="setScale" style="rounded=1;whiteSpace=wrap;html=1;" parent="1" vertex="1">
          <mxGeometry x="429" y="200" width="120" height="60" as="geometry" />
        </mxCell>
        <mxCell id="s_r3ZVMq5Yv6c_A7ZO6Z-12" value="render" style="whiteSpace=wrap;html=1;rounded=1;glass=0;" parent="1" vertex="1">
          <mxGeometry x="229" y="400" width="120" height="60" as="geometry" />
        </mxCell>
        <mxCell id="s_r3ZVMq5Yv6c_A7ZO6Z-15" value="accell" style="whiteSpace=wrap;html=1;rounded=1;glass=0;" parent="1" vertex="1">
          <mxGeometry x="229" y="480" width="120" height="60" as="geometry" />
        </mxCell>
        <mxCell id="s_r3ZVMq5Yv6c_A7ZO6Z-19" value="mvEnt" style="rounded=1;whiteSpace=wrap;html=1;" parent="1" vertex="1">
          <mxGeometry x="229" y="560" width="120" height="60" as="geometry" />
        </mxCell>
        <mxCell id="s_r3ZVMq5Yv6c_A7ZO6Z-26" style="edgeStyle=orthogonalEdgeStyle;rounded=0;orthogonalLoop=1;jettySize=auto;html=1;entryX=0;entryY=0.5;entryDx=0;entryDy=0;" parent="1" source="s_r3ZVMq5Yv6c_A7ZO6Z-22" target="s_r3ZVMq5Yv6c_A7ZO6Z-25" edge="1">
          <mxGeometry relative="1" as="geometry" />
        </mxCell>
        <mxCell id="s_r3ZVMq5Yv6c_A7ZO6Z-22" value="respawnEntOffscreen" style="rounded=1;whiteSpace=wrap;html=1;" parent="1" vertex="1">
          <mxGeometry x="229" y="640" width="131" height="60" as="geometry" />
        </mxCell>
        <mxCell id="s_r3ZVMq5Yv6c_A7ZO6Z-24" style="edgeStyle=orthogonalEdgeStyle;rounded=0;orthogonalLoop=1;jettySize=auto;html=1;entryX=0.154;entryY=1.014;entryDx=0;entryDy=0;entryPerimeter=0;" parent="1" source="s_r3ZVMq5Yv6c_A7ZO6Z-22" target="s_r3ZVMq5Yv6c_A7ZO6Z-6" edge="1">
          <mxGeometry relative="1" as="geometry">
            <Array as="points">
              <mxPoint x="389" y="670" />
              <mxPoint x="389" y="460" />
              <mxPoint x="448" y="460" />
            </Array>
          </mxGeometry>
        </mxCell>
        <mxCell id="s_r3ZVMq5Yv6c_A7ZO6Z-25" value="checkCollision" style="rounded=1;whiteSpace=wrap;html=1;" parent="1" vertex="1">
          <mxGeometry x="429" y="640" width="120" height="60" as="geometry" />
        </mxCell>
        <mxCell id="T4675CntPIbb6OxWo32h-1" value="updatePosition" style="rounded=1;whiteSpace=wrap;html=1;" vertex="1" parent="1">
          <mxGeometry x="229" y="720" width="120" height="60" as="geometry" />
        </mxCell>
        <mxCell id="T4675CntPIbb6OxWo32h-4" value="disableEnt" style="rounded=1;whiteSpace=wrap;html=1;" vertex="1" parent="1">
          <mxGeometry x="229" y="800" width="120" height="60" as="geometry" />
        </mxCell>
        <mxCell id="T4675CntPIbb6OxWo32h-8" value="enableEnt" style="rounded=1;whiteSpace=wrap;html=1;" vertex="1" parent="1">
          <mxGeometry x="229" y="880" width="120" height="60" as="geometry" />
        </mxCell>
        <mxCell id="T4675CntPIbb6OxWo32h-10" value="inherited by ship" style="shape=hexagon;perimeter=hexagonPerimeter2;whiteSpace=wrap;html=1;fixedSize=1;" vertex="1" parent="1">
          <mxGeometry x="50" y="-80" width="120" height="80" as="geometry" />
        </mxCell>
        <mxCell id="T4675CntPIbb6OxWo32h-12" value="setVelocity" style="whiteSpace=wrap;html=1;rounded=1;glass=0;" vertex="1" parent="1">
          <mxGeometry x="429" y="280" width="120" height="60" as="geometry" />
        </mxCell>
        <mxCell id="T4675CntPIbb6OxWo32h-21" value="&lt;div&gt;Varibles:&lt;/div&gt;xPos&lt;div&gt;yPos&lt;/div&gt;&lt;div&gt;MAXVEL&lt;/div&gt;&lt;div&gt;vel&lt;/div&gt;&lt;div&gt;colliderRadius&lt;/div&gt;&lt;div&gt;colliderOverlapping&lt;/div&gt;&lt;div&gt;lifetime&lt;/div&gt;&lt;div&gt;LIFETIMERESPAWNLIMIT&lt;/div&gt;&lt;div&gt;entType&lt;/div&gt;&lt;div&gt;entSpr&lt;/div&gt;" style="shape=note;whiteSpace=wrap;html=1;backgroundOutline=1;darkOpacity=0.05;" vertex="1" parent="1">
          <mxGeometry x="30" y="140" width="160" height="200" as="geometry" />
        </mxCell>
      </root>
    </mxGraphModel>
  </diagram>
</mxfile>
